<?xml version="1.0" encoding="UTF-8"?>
<svg width="73px" height="58px" viewBox="0 0 73 58" version="1.1" xmlns="http://www.w3.org/2000/svg" xmlns:xlink="http://www.w3.org/1999/xlink">
    <!-- Generator: Sketch 46.2 (44496) - http://www.bohemiancoding.com/sketch -->
    <title>Group 37</title>
    <desc>Created with Sketch.</desc>
    <defs></defs>
    <g id="Page-1" stroke="none" stroke-width="1" fill="none" fill-rule="evenodd">
        <g id="Artboard" transform="translate(-1439.000000, -693.000000)" fill="#FFFFFF">
            <g id="Page-1" transform="translate(1351.000000, 582.000000)">
                <g id="Group-37" transform="translate(88.000000, 111.305000)">
                    <path d="M24.4629,54.7974 L22.0559,53.3674 L21.8769,53.6494 C21.3299,54.5114 20.5799,54.9474 19.6519,54.9474 C18.0599,54.9474 16.8599,53.7474 16.8599,52.1554 C16.8599,50.5654 18.0599,49.3644 19.6519,49.3644 C20.5939,49.3644 21.3009,49.7784 21.8799,50.6674 L22.0589,50.9434 L24.4759,49.5094 L24.2669,49.2064 C23.1109,47.5334 21.6009,46.7224 19.6519,46.7224 C15.9659,46.7224 13.9769,49.5224 13.9769,52.1554 C13.9769,54.7904 15.9659,57.5914 19.6519,57.5914 C21.5289,57.5914 23.2999,56.6354 24.2749,55.0964 L24.4629,54.7974 Z" id="Fill-19"></path>
                    <path d="M31.1729,48.8667 L32.5209,52.2467 L29.8099,52.2467 L31.1729,48.8667 Z M24.3439,57.5907 L27.6709,57.5907 L28.6579,55.1317 L33.6499,55.1317 L34.6369,57.5907 L37.9779,57.5907 L32.0109,43.1837 L29.0429,43.1837 L29.8349,45.0937 L24.3439,57.5907 Z" id="Fill-21"></path>
                    <path d="M39.3555,57.5903 L42.2745,57.5903 L42.2745,51.1233 L44.1775,51.1233 L44.1775,48.4093 L42.2745,48.4093 L42.2745,47.1273 C42.2745,46.5773 42.6425,45.9923 43.3265,45.9923 C43.7015,45.9923 43.9265,46.0573 44.1525,46.1533 L44.4775,46.2923 L45.6895,43.6453 L45.3395,43.5013 C44.7965,43.2793 44.0425,43.2003 43.5145,43.2003 C42.1905,43.2003 41.0995,43.6333 40.3585,44.4533 C39.7125,45.1683 39.3555,46.1633 39.3555,47.2533 L39.3555,48.4093 L38.0665,48.4093 L38.0665,51.1233 L39.3555,51.1233 L39.3555,57.5903 Z" id="Fill-23"></path>
                    <polygon id="Fill-25" points="0.2188 43.1167 0.2188 57.5907 3.3908 57.5907 3.3908 49.3157 6.4658 51.6037 9.5418 49.3157 9.5418 57.5907 12.7138 57.5907 12.7138 43.1167 6.4658 47.8347"></polygon>
                    <path d="M48.2061,50.8355 C48.5871,49.8475 49.4081,49.2705 50.4711,49.2705 C51.5451,49.2705 52.3831,49.8335 52.8281,50.8355 L48.2061,50.8355 Z M50.7491,46.7545 C47.0751,46.7545 45.0921,49.5465 45.0921,52.1725 C45.0921,54.8005 47.0751,57.5915 50.7491,57.5915 L50.7511,57.5915 L50.7541,57.5915 C52.4391,57.5715 54.0191,56.8035 55.2401,55.4185 L52.8591,54.1205 C52.2491,54.7455 51.5071,55.0755 50.6891,55.0755 C49.4901,55.0755 48.4271,54.2765 48.1481,53.2315 L56.0881,53.2315 L56.0881,52.5115 C56.0881,48.5395 52.9671,46.7545 50.7491,46.7545 L50.7491,46.7545 Z" id="Fill-27"></path>
                    <path d="M60.1396,50.8355 C60.5206,49.8475 61.3406,49.2705 62.4046,49.2705 C63.4776,49.2705 64.3166,49.8335 64.7606,50.8355 L60.1396,50.8355 Z M62.6836,46.7545 C59.0076,46.7545 57.0256,49.5465 57.0256,52.1725 C57.0256,54.8005 59.0076,57.5915 62.6836,57.5915 L62.6856,57.5915 L62.6876,57.5915 C64.3706,57.5715 65.9516,56.8035 67.1736,55.4185 L64.7916,54.1205 C64.1826,54.7455 63.4416,55.0755 62.6226,55.0755 C61.4226,55.0755 60.3606,54.2765 60.0816,53.2315 L68.0216,53.2315 L68.0216,52.5115 C68.0216,48.5395 64.9006,46.7545 62.6836,46.7545 L62.6836,46.7545 Z" id="Fill-29"></path>
                    <polygon id="Fill-31" points="68.4971 45.8013 70.2181 45.8013 70.2181 46.1223 69.5421 46.1223 69.5421 47.9273 69.1701 47.9273 69.1701 46.1223 68.4971 46.1223"></polygon>
                    <polygon id="Fill-33" points="70.46 45.8013 70.983 45.8013 71.57 47.4653 71.575 47.4653 72.147 45.8013 72.665 45.8013 72.665 47.9273 72.312 47.9273 72.312 46.2863 72.306 46.2863 71.717 47.9273 71.409 47.9273 70.819 46.2863 70.814 46.2863 70.814 47.9273 70.46 47.9273"></polygon>
                    <path d="M43.5859,25.4097 L34.1829,29.7597 L24.7799,25.4097 L24.7799,10.5037 L34.1829,14.8517 L43.5859,10.5037 L43.5859,25.4097 Z M34.1829,7.6617 L18.2499,0.2937 L18.2499,29.5777 L34.1829,36.9527 L50.1159,29.5777 L50.1159,0.2937 L34.1829,7.6617 Z" id="Fill-35"></path>
                </g>
            </g>
        </g>
    </g>
</svg>