<?xml version="1.0" encoding="UTF-8"?>
<svg width="160px" height="33px" viewBox="0 0 160 33" version="1.1" xmlns="http://www.w3.org/2000/svg" xmlns:xlink="http://www.w3.org/1999/xlink">
    <!-- Generator: Sketch 46.2 (44496) - http://www.bohemiancoding.com/sketch -->
    <title>Group 2</title>
    <desc>Created with Sketch.</desc>
    <defs></defs>
    <g id="Page-1" stroke="none" stroke-width="1" fill="none" fill-rule="evenodd">
        <g id="Artboard" transform="translate(-1389.000000, -617.000000)" fill="#FFFFFF">
            <g id="Page-1" transform="translate(1351.000000, 582.000000)">
                <g id="Group-2" transform="translate(38.000000, 35.000000)">
                    <g id="Group-16" transform="translate(39.000000, 0.305000)">
                        <path d="M42.8896,20.6587 L38.6616,18.1457 L38.3476,18.6387 C37.3816,20.1527 36.0656,20.9217 34.4336,20.9187 C31.6366,20.9177 29.5286,18.8077 29.5306,16.0107 C29.5316,13.2137 31.6426,11.1067 34.4396,11.1077 C36.0946,11.1097 37.3376,11.8367 38.3536,13.3977 L38.6686,13.8827 L42.9156,11.3647 L42.5496,10.8327 C40.5206,7.8937 37.8676,6.4647 34.4416,6.4617 C27.9636,6.4587 24.4676,11.3777 24.4646,16.0077 C24.4626,20.6377 27.9526,25.5597 34.4306,25.5637 C37.7306,25.5667 40.8446,23.8867 42.5576,21.1827 L42.8896,20.6587 Z" id="Fill-2"></path>
                        <path d="M54.6865,10.2437 L57.0525,16.1857 L52.2875,16.1817 L54.6865,10.2437 Z M42.6775,25.5687 L48.5225,25.5717 L50.2595,21.2507 L59.0345,21.2557 L60.7675,25.5777 L66.6385,25.5817 L56.1655,0.2567 L50.9505,0.2527 L52.3385,3.6107 L42.6775,25.5687 Z" id="Fill-4"></path>
                        <path d="M69.0586,25.5826 L74.1896,25.5846 L74.1946,14.2196 L77.5406,14.2216 L77.5426,9.4536 L74.1976,9.4516 L74.1986,7.1986 C74.1996,6.2316 74.8466,5.2036 76.0456,5.2046 C76.7046,5.2046 77.1036,5.3176 77.5006,5.4876 L78.0726,5.7336 L80.2036,1.0816 L79.5876,0.8306 C78.6356,0.4386 77.3076,0.2986 76.3816,0.2976 C74.0536,0.2966 72.1376,1.0576 70.8346,2.4966 C69.6966,3.7536 69.0706,5.5016 69.0686,7.4176 L69.0666,9.4486 L66.8016,9.4476 L66.7996,14.2156 L69.0656,14.2166 L69.0586,25.5826 Z" id="Fill-6"></path>
                        <polygon id="Fill-8" points="0.2803 0.107 0.2803 25.544 5.8533 25.548 5.8623 11.005 11.2653 15.03 16.6713 11.005 16.6713 25.554 22.2373 25.556 22.2523 0.107 11.2683 8.406"></polygon>
                        <path d="M84.6191,13.7193 C85.2881,11.9843 86.7341,10.9713 88.6001,10.9713 C90.4881,10.9733 91.9621,11.9643 92.7431,13.7243 L84.6191,13.7193 Z M89.0931,6.5493 C82.6371,6.5453 79.1491,11.4503 79.1451,16.0663 C79.1421,20.6843 82.6261,25.5903 89.0821,25.5953 L89.0861,25.5953 L89.0911,25.5953 C92.0511,25.5623 94.8291,24.2133 96.9771,21.7813 L92.7941,19.4973 C91.7211,20.5973 90.4181,21.1743 88.9791,21.1743 C86.8731,21.1723 85.0041,19.7693 84.5151,17.9323 L98.4701,17.9393 L98.4701,16.6713 C98.4731,9.6953 92.9901,6.5523 89.0931,6.5493 L89.0931,6.5493 Z" id="Fill-10"></path>
                        <path d="M105.5918,13.731 C106.2608,11.995 107.7038,10.982 109.5708,10.983 C111.4598,10.984 112.9328,11.976 113.7128,13.735 L105.5918,13.731 Z M110.0628,6.562 C103.6068,6.558 100.1198,11.462 100.1168,16.079 C100.1128,20.696 103.5958,25.603 110.0548,25.606 L110.0578,25.606 L110.0608,25.606 C113.0228,25.574 115.7988,24.224 117.9468,21.793 L113.7638,19.51 C112.6908,20.609 111.3878,21.186 109.9508,21.185 C107.8438,21.184 105.9748,19.78 105.4868,17.944 L119.4398,17.951 L119.4408,16.684 C119.4448,9.706 113.9598,6.564 110.0628,6.562 L110.0628,6.562 Z" id="Fill-12"></path>
                        <polygon id="Fill-14" points="118.7842 5.7115 120.9572 5.7115 120.9572 6.1165 120.1032 6.1165 120.1032 8.3945 119.6352 8.3945 119.6352 6.1165 118.7842 6.1165"></polygon>
                    </g>
                    <path d="M28.5154,0.3906 L14.7364,6.7616 L0.9574,0.3906 L0.9574,25.7146 L14.7344,32.0916 L14.7384,32.0916 L28.5154,25.7146 L28.5154,0.3906 Z M22.8684,9.2206 L22.8684,22.1106 L14.7364,25.8726 L6.6054,22.1106 L6.6054,9.2206 L14.7364,12.9816 L22.8684,9.2206 Z" id="Fill-18"></path>
                </g>
            </g>
        </g>
    </g>
</svg>